Coordinates
version=1
nRows=26
nColumns=30
inDegrees=yes

Units are S.I. units (second, meters, Newtons, ...)
Angles are in degrees.

endheader
time	floatyaw	floatroll	floatpitch	floatx	floaty	floatz	pro_sup_l	deviation_l	flexion_l	cmc_flexion_l	cmc_abduction_l	mp_flexion_l	ip_flexion_l	2mcp_flexion_l	2mcp_abduction_l	2pm_flexion_l	2md_flexion_l	3mcp_flexion_l	3mcp_abduction_l	3pm_flexion_l	3md_flexion_l	4mcp_flexion_l	4mcp_abduction_l	4pm_flexion_l	4md_flexion_l	5mcp_flexion_l	5mcp_abduction_l	5pm_flexion_l	5md_flexion_l
-0.995000	-160.147433	-5.066637	-73.570646	0.082082	-0.182689	-0.015062	101.279531	3.559418	-1.160699	14.513412	4.518605	-26.029579	-41.817722	31.587065	6.601126	42.178508	28.777259	24.936589	4.098993	44.415693	29.309470	13.421919	-4.338221	52.662025	36.774734	0.465658	-7.706000	63.613402	43.381472
-0.985000	-160.147433	-5.066637	-73.570646	0.082082	-0.182690	-0.015062	101.278194	3.566087	-1.165867	14.497865	4.503431	-26.050768	-41.835306	31.596126	6.600891	42.176715	28.772436	24.935640	4.100567	44.410425	29.307817	13.434739	-4.338006	52.647976	36.772744	0.483485	-7.705223	63.604730	43.376387
-0.975000	-160.147433	-5.066637	-73.570646	0.082082	-0.182695	-0.015065	101.274931	3.570684	-1.171347	14.482830	4.480771	-26.073599	-41.855534	31.601502	6.598591	42.180134	28.771180	24.931847	4.101860	44.404833	29.305179	13.442718	-4.336988	52.633240	36.770636	0.493042	-7.710768	63.612476	43.380268
-0.965000	-160.147433	-5.066637	-73.570646	0.082082	-0.182703	-0.015068	101.264374	3.569550	-1.174525	14.469162	4.462501	-26.094470	-41.872390	31.604485	6.594288	42.189059	28.775552	24.926718	4.102009	44.401409	29.303603	13.443441	-4.335344	52.621878	36.769949	0.491578	-7.720624	63.635067	43.393887
-0.955000	-160.147433	-5.066637	-73.570646	0.082081	-0.182712	-0.015070	101.244954	3.561052	-1.174606	14.459090	4.457524	-26.109914	-41.882716	31.607177	6.589772	42.202681	28.785561	24.923142	4.101305	44.402182	29.304175	13.438733	-4.333713	52.617483	36.771207	0.481807	-7.731793	63.667652	43.414635
-0.945000	-160.147433	-5.066637	-73.570646	0.082078	-0.182719	-0.015068	101.219498	3.546148	-1.172567	14.455299	4.467469	-26.118050	-41.887474	31.611378	6.588098	42.218317	28.798378	24.924074	4.100826	44.408468	29.306812	13.433027	-4.333031	52.622969	36.774493	0.470228	-7.741469	63.704131	43.437588
-0.935000	-160.147433	-5.066637	-73.570646	0.082071	-0.182725	-0.015063	101.193580	3.527903	-1.170350	14.459109	4.486796	-26.119374	-41.890637	31.617792	6.592031	42.232037	28.809426	24.930904	4.101360	44.421368	29.311054	13.430508	-4.334137	52.640149	36.780205	0.463582	-7.747648	63.738707	43.457463
-0.925000	-160.147433	-5.066637	-73.570646	0.082061	-0.182728	-0.015055	101.172663	3.510198	-1.169767	14.468877	4.506903	-26.116522	-41.896313	31.625713	6.602367	42.240862	28.815025	24.942430	4.102475	44.442262	29.317089	13.433039	-4.337289	52.668671	36.789030	0.465420	-7.748969	63.766632	43.470584
-0.915000	-160.147433	-5.066637	-73.570646	0.082047	-0.182729	-0.015046	101.159624	3.496198	-1.171517	14.480061	4.521234	-26.113229	-41.906036	31.633284	6.617225	42.244928	28.814718	24.955126	4.102567	44.472299	29.325906	13.439874	-4.341933	52.705033	36.801022	0.474453	-7.744175	63.784411	43.476015
-0.905000	-160.147433	-5.066637	-73.570646	0.082033	-0.182729	-0.015035	101.153926	3.487242	-1.174644	14.487416	4.528238	-26.112958	-41.918071	31.638435	6.632853	42.247567	28.811345	24.964687	4.099954	44.510759	29.338138	13.448780	-4.346952	52.742895	36.814593	0.485445	-7.731977	63.790040	43.475406
-0.895000	-160.147433	-5.066637	-73.570646	0.082021	-0.182727	-0.015026	101.152555	3.482607	-1.176712	14.487912	4.530972	-26.117675	-41.928956	31.640122	6.645530	42.252716	28.808642	24.968024	4.094175	44.553666	29.352622	13.457384	-4.351197	52.775131	36.826522	0.492119	-7.711811	63.783632	43.471807
-0.885000	-160.147433	-5.066637	-73.570646	0.082012	-0.182723	-0.015019	101.151750	3.480164	-1.174672	14.482113	4.534307	-26.127235	-41.935744	31.639193	6.653400	42.261492	28.808298	24.964562	4.086448	44.594425	29.366262	13.463760	-4.353896	52.796711	36.833275	0.490423	-7.685063	63.767968	43.468138
-0.875000	-160.147433	-5.066637	-73.570646	0.082009	-0.182714	-0.015013	101.148447	3.477552	-1.166184	14.472918	4.541639	-26.139624	-41.937202	31.638375	6.657063	42.270670	28.808842	24.956215	4.078910	44.626729	29.375742	13.466300	-4.354705	52.806687	36.832873	0.480266	-7.655655	63.747974	43.465961
-0.865000	-160.147433	-5.066637	-73.570646	0.082011	-0.182700	-0.015006	101.140976	3.473308	-1.150859	14.462790	4.552777	-26.151875	-41.933529	31.641429	6.658642	42.274381	28.807081	24.946336	4.073269	44.647807	29.379781	13.463627	-4.353579	52.808042	36.825977	0.464975	-7.629176	63.728706	43.464922
-0.855000	-160.147433	-5.066637	-73.570646	0.082015	-0.182684	-0.014998	101.129229	3.467474	-1.130750	14.451680	4.563910	-26.161083	-41.925262	31.651794	6.660103	42.267814	28.800765	24.938283	4.069951	44.659549	29.380046	13.455137	-4.350747	52.805643	36.815495	0.449203	-7.610882	63.713054	43.463137
-0.845000	-160.147433	-5.066637	-73.570646	0.082020	-0.182668	-0.014989	101.114507	3.461485	-1.109696	14.437022	4.569757	-26.164966	-41.912266	31.671052	6.662010	42.250513	28.790585	24.934007	4.068322	44.666875	29.380108	13.441781	-4.346829	52.803779	36.805107	0.436844	-7.603751	63.701023	43.458473
-0.835000	-160.147433	-5.066637	-73.570646	0.082022	-0.182654	-0.014979	101.098925	3.457395	-1.091844	14.415553	4.566952	-26.162081	-41.893503	31.697772	6.663480	42.227460	28.780386	24.933138	4.067620	44.674798	29.383397	13.426261	-4.342861	52.804806	36.797770	0.430095	-7.607691	63.691389	43.450190
-0.825000	-160.147433	-5.066637	-73.570646	0.082021	-0.182646	-0.014969	101.084331	3.456722	-1.080253	14.385619	4.556694	-26.152278	-41.868149	31.727502	6.663199	42.207484	28.775575	24.933288	4.067731	44.686179	29.391527	13.412287	-4.340000	52.809308	36.794965	0.429747	-7.620153	63.684359	43.439966
-0.815000	-160.147433	-5.066637	-73.570646	0.082015	-0.182645	-0.014960	101.071135	3.459428	-1.076234	14.348574	4.544845	-26.137609	-41.837832	31.754361	6.660720	42.199495	28.780336	24.931695	4.069203	44.701109	29.403678	13.403209	-4.339028	52.817033	36.796757	0.435885	-7.637537	63.682739	43.431446
-0.805000	-160.147433	-5.066637	-73.570646	0.082007	-0.182650	-0.014952	101.057809	3.463638	-1.079314	14.308545	4.539259	-26.122885	-41.808350	31.773611	6.657135	42.207878	28.794865	24.927205	4.072598	44.717667	29.417068	13.400640	-4.339989	52.827661	36.802314	0.448073	-7.656443	63.690210	43.428359
-0.795000	-160.147433	-5.066637	-73.570646	0.081996	-0.182661	-0.014945	101.041648	3.466476	-1.087425	14.270804	4.545997	-26.114604	-41.788734	31.783854	6.654668	42.229410	28.814276	24.921060	4.077783	44.733290	29.428223	13.403680	-4.342212	52.840970	36.810466	0.464938	-7.674236	63.707972	43.432344
-0.785000	-160.147433	-5.066637	-73.570646	0.081986	-0.182676	-0.014938	101.020553	3.465599	-1.097305	14.239688	4.566532	-26.118050	-41.787135	31.787616	6.655434	42.253987	28.830352	24.915851	4.083796	44.746106	29.434601	13.409283	-4.344724	52.856623	36.820037	0.483829	-7.689062	63.732791	43.442008
-0.775000	-160.147433	-5.066637	-73.570646	0.081977	-0.182690	-0.014932	100.994745	3.460551	-1.105353	14.217186	4.597099	-26.134236	-41.805915	31.790008	6.660117	42.269611	28.835699	24.913388	4.089412	44.755706	29.435856	13.413741	-4.346757	52.873915	36.829888	0.501313	-7.699810	63.758404	43.453848
-0.765000	-160.147433	-5.066637	-73.570646	0.081971	-0.182702	-0.014924	100.967233	3.453126	-1.108853	14.202730	4.630256	-26.159051	-41.839516	31.796009	6.667363	42.269162	28.828077	24.913080	4.093957	44.763034	29.434027	13.414473	-4.348082	52.891780	36.838900	0.514501	-7.706299	63.779179	43.464258
-0.755000	-160.147433	-5.066637	-73.570646	0.081967	-0.182708	-0.014915	100.942625	3.446610	-1.107002	14.193955	4.657945	-26.185449	-41.876883	31.807608	6.674353	42.254817	28.812194	24.912087	4.097684	44.769516	29.432463	13.411056	-4.348991	52.909053	36.846132	0.522410	-7.709441	63.793069	43.471184
-0.745000	-160.147433	-5.066637	-73.570646	0.081965	-0.182708	-0.014905	100.924935	3.444224	-1.101137	14.187852	4.674805	-26.207241	-41.906949	31.822396	6.678349	42.237085	28.797590	24.907322	4.101361	44.776087	29.434092	13.405052	-4.349968	52.924820	36.851135	0.526457	-7.710926	63.801787	43.474503
